# AST/ASF file generated using VICON BodyLanguage
# -----------------------------------------------
:version 1.10
:name VICON
:units
  mass 1.0
  length 0.45
  angle deg
:documentation
   .ast/.asf automatically generated from VICON data using
   VICON BodyBuilder and BodyLanguage model FoxedUp or BRILLIANT.MOD
:root
   order TX TY TZ RX RY RZ
   axis XYZ
   position 0 0 0  
   orientation 0 0 0 
:bonedata
  begin
     id 1 
     name lhipjoint
     direction 0.661853 -0.702389 0.261917 
     length 2.64193 
     axis 0 0 0  XYZ
  end
  begin
     id 2 
     name lfemur
     direction 0.34202 -0.939693 0  
     length 7.01722  
     axis 0 0 20  XYZ
    dof rx ry rz
    limits (-160.0 20.0)
           (-70.0 70.0)
           (-60.0 70.0)
  end
  begin
     id 3 
     name ltibia
     direction 0.34202 -0.939693 0   
     length 8.25008   
     axis 0 0 20   XYZ
    dof rx
    limits (-10.0 170.0)
  end
  begin
     id 4 
     name lfoot
     direction 0.0709916 -0.195048 0.978221   
     length 2.31941   
     axis -90 7.62852e-016 20   XYZ
    dof rx rz
    limits (-45.0 90.0)
           (-70.0 20.0)
  end
  begin
     id 5 
     name ltoes
     direction 1.53586e-011 -4.22017e-011 1   
     length 1.16486   
     axis -90 7.62852e-016 20   XYZ
    dof rx
    limits (-90.0 20.0)
  end
  begin
     id 6 
     name rhipjoint
     direction -0.638185 -0.721362 0.268992   
     length 2.57244  
     axis 0 0 0  XYZ 
  end
  begin
     id 7 
     name rfemur
     direction -0.34202 -0.939693 0   
     length 7.07017   
     axis 0 0 -20   XYZ
    dof rx ry rz
    limits (-160.0 20.0)
           (-70.0 70.0)
           (-70.0 60.0)
  end
  begin
     id 8 
     name rtibia
     direction -0.34202 -0.939693 0   
     length 8.20386   
     axis 0 0 -20   XYZ
    dof rx
    limits (-10.0 170.0)
 end
 begin
     id 9 
     name rfoot
     direction -0.0822429 -0.225961 0.970658   
     length 2.32215  
     axis -90 -7.62852e-016 -20   XYZ
    dof rx rz
    limits (-45.0 90.0)
           (-20.0 70.0)
  end
  begin
     id 10 
     name rtoes
     direction -1.53597e-011 -4.21689e-011 1   
     length 1.16333   
     axis -90 -7.62852e-016 -20   XYZ
    dof rx
    limits (-90.0 20.0)
  end
  begin
     id 11 
     name lowerback
     direction -0.0131557 0.998589 -0.0514484   
     length 2.14993   
     axis 0 0 0   XYZ
    dof rx ry rz
    limits (-20.0 45.0)
           (-30.0 30.0)
           (-30.0 30.0)
  end
  begin
     id 12 
     name upperback
     direction -0.000776481 0.999993 0.00352685   
     length 2.15301   
     axis 0 0 0   XYZ
    dof rx ry rz
    limits (-20.0 45.0)
           (-30.0 30.0)
           (-30.0 30.0)
  end
  begin
     id 13 
     name thorax
     direction 0.00438186 0.999609 0.0276143   
     length 2.15424   
     axis 0 0 0   XYZ
    dof rx ry rz
    limits (-20.0 45.0)
           (-30.0 30.0)
           (-30.0 30.0)
  end
  begin
     id 14 
     name lowerneck
     direction -0.0488006 0.998094 0.0377807   
     length 1.90481   
     axis 0 0 0   XYZ
    dof rx ry rz
    limits (-20.0 45.0)
           (-30.0 30.0)
           (-30.0 30.0)
  end
  begin
     id 15 
     name upperneck
     direction 0.0443769 0.990702 -0.12861   
     length 1.91305   
     axis 0 0 0   XYZ
    dof rx ry rz
    limits (-20.0 45.0)
           (-30.0 30.0)
           (-30.0 30.0)
  end
  begin
     id 16
     name head
     direction 0.0165599 0.998647 -0.0492982  
     length 1.92369  
     axis 0 0 0   XYZ
    dof rx ry rz
    limits (-20.0 45.0)
           (-30.0 30.0)
           (-30.0 30.0)
  end
  begin
     id 17 
     name lclavicle
     direction 0.911936 0.410197 -0.0105506  
     length 3.52622  
     axis 0 0 0   XYZ
    dof ry rz
    limits (-20.0 10.0)
           (0.0 20.0)
  end
  begin
     id 18 
     name lhumerus
     direction 1 -4.48974e-011 -2.48591e-028   
     length 5.47651   
     axis 180 -30 -90   XYZ
    dof rx ry rz
    limits (-60.0 90.0)
           (-90.0 90.0)
           (-90.0 90.0)
  end
  begin
     id 19
     name lradius
     direction 1 -4.48938e-011 -4.40099e-027   
     length 3.09058   
     axis 180 -30 -90   XYZ
    dof rx
    limits (-10.0 170.0)
  end
  begin
     id 20
     name lwrist
     direction 1 -4.49042e-011 -2.99852e-027   
     length 1.54529   
     axis 1.95339e-015 90 90   XYZ
    dof ry
    limits (-180.0 0.0)
 end
  begin
     id 21 
     name lhand
     direction 1 -4.48815e-011 -5.98193e-027   
     length 0.771611   
     axis 3.82337e-015 90 90   XYZ
    dof rx rz
    limits (-90.0 90.0)
           (-45.0 45.0)
  end
  begin
     id 22 
     name lfingers
     direction 1 -4.49034e-011 -1.1993e-026   
     length 0.622093   
     axis 7.64668e-015 90 90   XYZ
    dof rx
    limits (0.0 90.0)
  end
  begin
     id 23
     name lthumb
     direction 0.707107 -6.34867e-011 0.707107   
     length 0.893204   
     axis -90 45 -1.62303e-014   XYZ
    dof rx rz
    limits (-45.0 45.0)
           (-45.0 45.0)
  end
  begin
     id 24 
     name rclavicle
     direction -0.93442 0.355634 -0.0195692   
     length 3.62463  
     axis 0 0 0   XYZ 
    dof ry rz
    limits (-10.0 20.0)
           (-20.0 0.0)
  end
  begin
     id 25 
     name rhumerus
     direction -1 -4.48957e-011 -1.19147e-027  
     length 5.14182   
     axis 180 30 90   XYZ
    dof rx ry rz
    limits (-90.0 60.0)
           (-90.0 90.0)
           (-90.0 90.0)
  end
  begin
     id 26 
     name rradius
     direction -1 -4.48952e-011 -3.81062e-027   
     length 3.35565   
     axis 180 30 90   XYZ
    dof rx
    limits (-10.0 170.0)
  end
  begin
     id 27 
     name rwrist
     direction -1 -4.48973e-011 -2.99621e-027   
     length 1.67782   
     axis 1.95339e-015 -90 -90   XYZ
    dof ry
    limits (-180.0 0.0)
  end
  begin
     id 28
     name rhand
     direction -1 -4.48895e-011 -5.98727e-027   
     length 0.801042   
     axis 3.82337e-015 -90 -90   XYZ
    dof rx rz
    limits (-90.0 90.0)
           (-45.0 45.0)
  end
  begin
     id 29
     name rfingers
     direction -1 -4.49065e-011 -1.19972e-026   
     length 0.645821   
     axis 7.64668e-015 -90 -90   XYZ
    dof rx
    limits (0.0 90.0)
  end
  begin
     id 30
     name rthumb
     direction -0.707107 -6.34957e-011 0.707107   
     length 0.927273   
     axis -90 -45 1.62303e-014   XYZ
    dof rx rz
    limits (-45.0 45.0)
           (-45.0 45.0)
  end
:hierarchy
  begin
    root lhipjoint rhipjoint lowerback
    lhipjoint lfemur
    lfemur ltibia
    ltibia lfoot
    lfoot ltoes
    rhipjoint rfemur
    rfemur rtibia
    rtibia rfoot
    rfoot rtoes
    lowerback upperback
    upperback thorax
    thorax lowerneck lclavicle rclavicle
    lowerneck upperneck
    upperneck head
    lclavicle lhumerus
    lhumerus lradius
    lradius lwrist
    lwrist lhand lthumb
    lhand lfingers
    rclavicle rhumerus
    rhumerus rradius
    rradius rwrist
    rwrist rhand rthumb
    rhand rfingers
  end

#!OML:ASF E:\Style4\Style4.ASF
:FULLY-SPECIFIED
:DEGREES
510
root 1.31055 16.7396 0.326106 -1.26271 -26.3187 6.22288
lowerback 10.5739 1.64471 -4.67419
upperback 5.75641 1.68328 -0.842595
thorax -0.0303407 0.726741 1.57594
lowerneck -7.29478 -4.32095 -5.26507
upperneck 23.4321 -5.58787 1.34028
head 8.68837 -2.98796 0.793595
rclavicle -2.00773e-014 3.97569e-016
rhumerus -26.2447 22.7044 -63.1128
rradius 135.998
rwrist -72.6685
rhand 60.9438 -7.68319
rfingers 7.12502
rthumb 74.7793 28.1158
lclavicle -2.00773e-014 3.97569e-016
lhumerus -7.5708 -30.0124 54.2563
lradius 138.042
lwrist 73.8738
lhand 38.092 50.8054
lfingers 7.12502
lthumb 60.7955 63.7225
rfemur -29.6991 10.935 7.23123
rtibia 54.8919
rfoot -24.3791 -11.472
rtoes -22.348
lfemur -18.1815 16.1293 -30.3725
ltibia 49.6019
lfoot -35.0061 18.0264
ltoes -12.7445
511
root 1.30215 16.7363 0.330203 -1.25137 -26.1966 6.15301
lowerback 10.4773 1.62017 -4.62714
upperback 5.62307 1.65905 -0.847482
thorax -0.114534 0.7204 1.54769
lowerneck -7.881 -4.36501 -5.17947
upperneck 24.0787 -5.61517 1.2042
head 9.01507 -3.00629 0.710751
rclavicle -3.34952e-014 5.56597e-015
rhumerus -25.8838 23.4432 -62.5268
rradius 135.973
rwrist -72.7324
rhand 60.8738 -7.4913
rfingers 7.12502
rthumb 74.7679 28.0538
lclavicle -3.34952e-014 5.56597e-015
lhumerus -7.20124 -30.822 53.6507
lradius 138.047
lwrist 73.7396
lhand 38.8191 50.9287
lfingers 7.12502
lthumb 61.4092 63.1392
rfemur -29.6275 10.9466 7.33605
rtibia 54.9523
rfoot -24.4716 -11.57
rtoes -22.3492
lfemur -18.1525 16.0681 -30.2631
ltibia 49.6663
lfoot -35.0293 17.9865
ltoes -12.7095
512
root 1.29571 16.7341 0.333335 -1.25535 -26.1173 6.08992
lowerback 10.405 1.62308 -4.56121
upperback 5.49275 1.67077 -0.874482
thorax -0.20981 0.732615 1.48156
lowerneck -8.38983 -4.42326 -5.15628
upperneck 24.6283 -5.68611 1.20241
head 9.30444 -3.03666 0.681097
rclavicle -4.59193e-014 -1.86858e-014
rhumerus -25.4866 24.1114 -61.9494
rradius 135.952
rwrist -72.7727
rhand 60.896 -7.34526
rfingers 7.12502
rthumb 74.7715 28.2803
lclavicle -4.59193e-014 -1.86858e-014
lhumerus -6.64673 -31.5958 52.8841
lradius 138.002
lwrist 73.7948
lhand 38.6035 50.6867
lfingers 7.12502
lthumb 61.2278 63.1101
rfemur -29.5645 11.0046 7.43195
rtibia 54.9989
rfoot -24.5268 -11.6977
rtoes -22.3989
lfemur -18.1266 16.0213 -30.1783
ltibia 49.7273
lfoot -35.0898 18.0123
ltoes -12.8043
513
root 1.28822 16.7306 0.337639 -1.27077 -26.0379 6.03206
lowerback 10.3272 1.63365 -4.50902
upperback 5.35118 1.69157 -0.893152
thorax -0.314707 0.749242 1.43075
lowerneck -8.78763 -4.49461 -5.23275
upperneck 25.1184 -5.78549 1.29067
head 9.56209 -3.08006 0.698535
rclavicle -3.4191e-014 2.26615e-014
rhumerus -25.0812 24.8169 -61.3621
rradius 135.897
rwrist -72.6811
rhand 60.9698 -7.11405
rfingers 7.12502
rthumb 74.7834 28.7792
lclavicle -3.4191e-014 2.26615e-014
lhumerus -6.09027 -32.4226 52.0777
lradius 137.949
lwrist 73.9258
lhand 38.2651 50.2961
lfingers 7.12502
lthumb 60.9421 63.0478
rfemur -29.4835 11.0484 7.53462
rtibia 55.0425
rfoot -24.5476 -11.9065
rtoes -22.7056
lfemur -18.0886 15.9821 -30.0902
ltibia 49.7816
lfoot -35.138 18.0175
ltoes -12.875
514
root 1.28184 16.7266 0.341574 -1.29185 -25.9219 6.0267
lowerback 10.2548 1.63095 -4.49712
upperback 5.19993 1.69079 -0.903359
thorax -0.432352 0.754588 1.41329
lowerneck -9.06159 -4.54447 -5.33098
upperneck 25.4428 -5.85359 1.37947
head 9.73899 -3.1107 0.727857
rclavicle 5.22804e-014 -1.03368e-014
rhumerus -24.7037 25.6614 -60.7541
rradius 135.905
rwrist -72.7776
rhand 60.6707 -6.97386
rfingers 7.12502
rthumb 74.7333 27.8373
lclavicle 5.22804e-014 -1.03368e-014
lhumerus -5.5388 -33.2606 51.3386
lradius 137.928
lwrist 74.184
lhand 38.1706 50.2223
lfingers 7.12502
lthumb 60.8621 63.0645
rfemur -29.4158 11.0094 7.5761
rtibia 55.0868
rfoot -24.5564 -12.0727
rtoes -23.0981
lfemur -18.0545 15.8976 -30.0526
ltibia 49.8139
lfoot -35.0825 18.0558
ltoes -13.211
515
root 1.2758 16.7235 0.345329 -1.33474 -25.8227 6.02003
lowerback 10.205 1.62216 -4.51394
upperback 5.06685 1.67862 -0.889626
thorax -0.544006 0.752951 1.43762
lowerneck -9.26779 -4.57517 -5.46338
upperneck 25.662 -5.88664 1.45949
head 9.866 -3.12923 0.766585
rclavicle -1.70955e-014 -2.78299e-015
rhumerus -24.2869 26.5383 -60.0836
rradius 136.024
rwrist -73.3413
rhand 59.8039 -7.42372
rfingers 7.12502
rthumb 74.5569 24.2963
lclavicle -1.70955e-014 -2.78299e-015
lhumerus -5.04534 -34.1083 50.6413
lradius 137.976
lwrist 74.4774
lhand 37.9894 50.1788
lfingers 7.12502
lthumb 60.7086 63.1931
rfemur -29.3153 10.9923 7.61046
rtibia 55.1087
rfoot -24.626 -12.0766
rtoes -22.7731
lfemur -17.9802 15.8168 -30.0108
ltibia 49.8249
lfoot -34.976 18.1992
ltoes -13.6953
516
root 1.26928 16.7219 0.351463 -1.39427 -25.712 5.98565
lowerback 10.1319 1.58069 -4.51353
upperback 4.97519 1.6271 -0.87349
thorax -0.597052 0.73008 1.46017
lowerneck -9.49876 -4.57393 -5.52706
upperneck 25.8775 -5.87184 1.48297
head 9.99078 -3.12521 0.779387
rclavicle -1.39149e-014 2.18663e-014
rhumerus -23.6549 27.4303 -59.3297
rradius 136.108
rwrist -73.9118
rhand 59.2405 -8.15301
rfingers 7.12502
rthumb 74.4181 21.5996
lclavicle -1.39149e-014 2.18663e-014
lhumerus -4.55876 -34.8919 49.8884
lradius 138.009
lwrist 74.6597
lhand 37.8687 49.9467
lfingers 7.12502
lthumb 60.6062 63.0745
rfemur -29.1512 10.9543 7.67766
rtibia 55.1057
rfoot -24.6612 -12.1232
rtoes -22.6446
lfemur -17.8527 15.7259 -29.9386
ltibia 49.823
lfoot -34.9626 18.2671
ltoes -14.0151
517
root 1.26186 16.7187 0.357281 -1.48283 -25.6221 6.03943
lowerback 10.0461 1.55398 -4.59027
upperback 4.89318 1.58819 -0.90577
thorax -0.634068 0.712265 1.47479
lowerneck -9.63402 -4.55767 -5.53638
upperneck 25.9479 -5.86524 1.57279
head 10.045 -3.11265 0.809132
rclavicle 7.15625e-015 -1.35174e-014
rhumerus -22.9557 28.3036 -58.5769
rradius 136.029
rwrist -74.0274
rhand 60.1135 -8.4876
rfingers 7.12502
rthumb 74.6251 24.328
lclavicle 7.15625e-015 -1.35174e-014
lhumerus -3.94467 -35.5999 49.0491
lradius 138.013
lwrist 74.8646
lhand 37.7606 49.8794
lfingers 7.12502
lthumb 60.5143 63.1082
rfemur -29.0192 10.9564 7.64147
rtibia 55.0857
rfoot -24.4971 -12.4006
rtoes -23.5829
lfemur -17.7286 15.6649 -29.9551
ltibia 49.8151
lfoot -34.9626 18.309
ltoes -14.1461
518
root 1.25612 16.7167 0.362836 -1.53442 -25.5512 6.03552
lowerback 9.96408 1.54387 -4.59754
upperback 4.82723 1.578 -0.912749
thorax -0.657286 0.709048 1.47371
lowerneck -9.71789 -4.53623 -5.64
upperneck 25.8734 -5.86028 1.77788
head 10.044 -3.0965 0.897291
rclavicle -4.33351e-014 1.39149e-014
rhumerus -22.2814 29.1268 -57.7695
rradius 135.879
rwrist -73.9655
rhand 60.1216 -7.26215
rfingers 7.12502
rthumb 74.6268 25.5822
lclavicle -4.33351e-014 1.39149e-014
lhumerus -3.19226 -36.2813 48.1963
lradius 137.974
lwrist 75.2018
lhand 37.5124 49.8877
lfingers 7.12502
lthumb 60.3031 63.3459
rfemur -28.9078 10.9396 7.66367
rtibia 55.0777
rfoot -24.3959 -12.617
rtoes -24.3908
lfemur -17.6369 15.6326 -29.9238
ltibia 49.8183
lfoot -35.0046 18.2747
ltoes -14.051
519
root 1.25089 16.7176 0.366054 -1.55297 -25.4789 5.94514
lowerback 9.94483 1.54667 -4.53878
upperback 4.73299 1.587 -0.878065
thorax -0.745132 0.717713 1.47497
lowerneck -9.74914 -4.52681 -5.7289
upperneck 25.8416 -5.85873 1.90243
head 10.0455 -3.09017 0.955359
rclavicle -2.84262e-014 3.97569e-015
rhumerus -21.6849 29.9635 -56.9436
rradius 135.819
rwrist -74.0886
rhand 59.9472 -6.21717
rfingers 7.12502
rthumb 74.5892 26.0088
lclavicle -2.84262e-014 3.97569e-015
lhumerus -2.4965 -36.9972 47.4132
lradius 137.939
lwrist 75.6
lhand 37.4081 49.9509
lfingers 7.12502
lthumb 60.2141 63.5044
rfemur -28.7891 10.8906 7.80323
rtibia 55.0949
rfoot -24.629 -12.4934
rtoes -23.4705
lfemur -17.5563 15.6021 -29.801
ltibia 49.8331
lfoot -34.9756 18.2708
ltoes -14.0175
520
root 1.24445 16.7158 0.368725 -1.5975 -25.4228 5.91495
lowerback 9.93484 1.58169 -4.54245
upperback 4.62362 1.63177 -0.864876
thorax -0.856579 0.74418 1.4846
lowerneck -9.83178 -4.54769 -5.71131
upperneck 25.9708 -5.89518 1.91697
head 10.1097 -3.1036 0.950214
rclavicle -1.30204e-014 4.05521e-014
rhumerus -21.2162 30.7907 -56.2181
rradius 135.784
rwrist -74.2657
rhand 61.0406 -5.92093
rfingers 7.12502
rthumb 74.7944 30.2295
lclavicle -1.30204e-014 4.05521e-014
lhumerus -1.85841 -37.8114 46.6851
lradius 137.924
lwrist 75.7677
lhand 37.4904 49.9987
lfingers 7.12502
lthumb 60.2842 63.4771
rfemur -28.6581 10.9036 7.86128
rtibia 55.1257
rfoot -24.97 -12.1016
rtoes -21.538
lfemur -17.463 15.5743 -29.7324
ltibia 49.8381
lfoot -34.935 18.3408
ltoes -14.2635
521
root 1.23772 16.7118 0.371838 -1.667 -25.3456 5.91318
lowerback 9.93066 1.59804 -4.54533
upperback 4.53735 1.65143 -0.880747
thorax -0.944819 0.757476 1.46656
lowerneck -9.94011 -4.55661 -5.68994
upperneck 26.1014 -5.92063 1.95613
head 10.1797 -3.10854 0.953783
rclavicle -4.44284e-014 7.95139e-015
rhumerus -20.7508 31.5308 -55.5585
rradius 135.706
rwrist -74.5308
rhand 62.7109 -6.38471
rfingers 7.12502
rthumb 74.9627 35.9192
lclavicle -4.44284e-014 7.95139e-015
lhumerus -1.20595 -38.6057 45.9301
lradius 137.938
lwrist 75.8232
lhand 37.2212 50.0356
lfingers 7.12502
lthumb 60.0545 63.7585
rfemur -28.5116 10.961 7.867
rtibia 55.126
rfoot -25.0153 -12.0637
rtoes -21.5439
lfemur -17.3478 15.466 -29.6987
ltibia 49.8276
lfoot -34.9291 18.4087
ltoes -14.4756
522
root 1.2321 16.712 0.379038 -1.73714 -25.2472 5.94219
lowerback 9.88961 1.57281 -4.58872
upperback 4.44798 1.61487 -0.886446
thorax -1.01396 0.741916 1.48868
lowerneck -10.0718 -4.51852 -5.66351
upperneck 26.3137 -5.868 1.93933
head 10.2789 -3.0838 0.94531
rclavicle 2.47487e-014 6.36111e-015
rhumerus -20.1913 32.343 -54.8624
rradius 135.607
rwrist -74.9307
rhand 62.2164 -6.98159
rfingers 7.12502
rthumb 74.9315 33.4869
lclavicle 2.47487e-014 6.36111e-015
lhumerus -0.66519 -39.3827 45.238
lradius 137.947
lwrist 75.9457
lhand 36.8467 49.8056
lfingers 7.12502
lthumb 59.7338 63.8623
rfemur -28.3722 10.9236 7.84688
rtibia 55.0987
rfoot -24.9238 -12.2315
rtoes -22.3545
lfemur -17.2112 15.3207 -29.7096
ltibia 49.7747
lfoot -34.9653 18.4722
ltoes -14.5623
523
root 1.22755 16.7143 0.387569 -1.80467 -25.1781 6.03166
lowerback 9.801 1.56325 -4.66403
upperback 4.36221 1.59877 -0.910287
thorax -1.05468 0.735788 1.50879
lowerneck -10.145 -4.49566 -5.69101
upperneck 26.4863 -5.84169 1.97415
head 10.3573 -3.07105 0.962572
rclavicle -4.45278e-014 1.39149e-014
rhumerus -19.6311 33.1424 -54.2025
rradius 135.486
rwrist -75.1329
rhand 60.8403 -7.11374
rfingers 7.12502
rthumb 74.7624 28.3101
lclavicle -4.45278e-014 1.39149e-014
lhumerus -0.0932652 -40.1764 44.5805
lradius 137.905
lwrist 75.9231
lhand 36.7983 49.5735
lfingers 7.12502
lthumb 59.6923 63.6728
rfemur -28.2512 10.8008 7.78088
rtibia 55.0757
rfoot -24.8975 -12.3207
rtoes -22.5794
lfemur -17.087 15.2174 -29.7886
ltibia 49.7015
lfoot -34.9355 18.5736
ltoes -14.7055
524
root 1.22423 16.7144 0.395147 -1.86403 -25.1607 6.09171
lowerback 9.72186 1.58668 -4.68836
upperback 4.31565 1.63105 -0.937801
thorax -1.06148 0.752961 1.4916
lowerneck -10.2579 -4.51416 -5.77221
upperneck 26.6328 -5.88847 2.11875
head 10.4429 -3.0837 1.01795
rclavicle -7.1314e-014 4.37326e-015
rhumerus -19.1337 33.8589 -53.5989
rradius 135.391
rwrist -75.1519
rhand 59.9136 -7.05602
rfingers 7.12502
rthumb 74.5818 25.0512
lclavicle -7.1314e-014 4.37326e-015
lhumerus 0.577314 -40.8681 43.8663
lradius 137.863
lwrist 75.9647
lhand 36.8663 49.6206
lfingers 7.12502
lthumb 59.7506 63.66
rfemur -28.1592 10.7485 7.73565
rtibia 55.0626
rfoot -24.8919 -12.4007
rtoes -22.831
lfemur -16.9636 15.1693 -29.8405
ltibia 49.6271
lfoot -34.9587 18.5833
ltoes -14.4856
